<svg width="287" height="123" version="1.1" xmlns="http://www.w3.org/2000/svg" desc="Created with imagetracer.js version 1.2.6" ><path fill="rgb(0,0,0)" stroke="rgb(0,0,0)" stroke-width="1" opacity="0" d="M 0 0 L 287 0 L 287 123 L 0 123 L 0 0 Z M 62 17 Q 58 18 60 25 L 58 27 L 55 26 Q 51 25 52 29 Q 51 31 50 29 Q 44 27 46 33 L 45 32 Q 39 30 41 36 L 38 36 Q 35 37 37 39 Q 38 43 33 41 L 34 46 L 30 47 Q 29 50 32 52 L 28 54 L 30 58 L 28 58 Q 24 60 29 63 L 26 67 L 29 69 L 26 73 L 30 75 Q 27 76 28 79 L 32 80 L 30 83 Q 29 87 34 85 L 33 88 Q 32 92 37 90 L 37 94 L 37 95 Q 43 93 41 99 L 46 99 L 46 103 L 51 102 L 54 106 L 56 105 L 57 104 L 60 107 L 63 105 L 67 107 L 68 104 L 73 106 L 76 102 L 78 103 Q 82 104 80 99 L 85 99 L 85 95 L 89 95 L 89 90 L 93 90 L 92 87 L 92 85 L 96 85 L 94 81 L 98 79 L 96 75 L 100 73 L 97 70 L 100 66 L 97 64 L 100 60 L 96 58 L 98 54 L 95 52 L 96 47 L 92 46 L 93 44 L 92 41 L 89 41 L 89 36 L 85 36 L 85 32 L 81 33 L 80 29 L 76 30 L 74 26 Q 71 25 70 28 Q 65 27 66 19 Q 65 16 62 17 Z M 131 47 L 131 79 L 149 79 L 154 77 L 160 69 Q 162 58 158 54 Q 154 48 147 47 L 131 47 Z M 192 47 L 192 52 L 199 78 L 200 79 L 211 79 L 215 62 L 218 76 L 219 79 L 230 79 L 237 52 L 237 47 L 227 47 L 225 63 L 224 64 L 220 51 L 220 47 L 209 47 L 206 64 L 204 63 L 204 58 L 202 52 L 202 47 L 192 47 Z M 250 53 L 243 56 L 238 66 L 240 74 L 247 79 Q 256 81 261 77 L 265 71 Q 267 63 264 60 Q 260 53 250 53 Z M 283 53 L 278 56 L 277 54 L 268 54 L 268 79 L 277 79 L 277 66 Q 280 62 285 63 L 285 54 L 283 53 Z M 163 54 L 163 73 L 165 77 L 169 79 Q 175 80 179 78 L 180 78 L 181 79 L 189 79 L 189 54 L 180 54 L 180 68 L 178 71 Q 173 72 172 69 L 172 54 L 163 54 Z " /><path fill="rgb(0,0,0)" stroke="rgb(0,0,0)" stroke-width="1" opacity="0" d="M 140 56 Q 148 54.3 150 59.5 L 151 64.5 L 148.5 69 L 140 71 L 140 56 Z " /><path fill="rgb(0,0,0)" stroke="rgb(0,0,0)" stroke-width="1" opacity="0" d="M 250.5 62 Q 254.3 61.3 255 63.5 L 256 66.5 L 253.5 71 Q 249.8 71.8 249 69.5 L 248 64.5 L 250.5 62 Z " /><path fill="rgb(255,255,255)" stroke="rgb(255,255,255)" stroke-width="1" opacity="0.5058823529411764" d="M 131 47 L 147 47.5 L 132 48 L 132 78 L 148.5 78 Q 154.3 76.8 157 72.5 L 159.5 65 L 160 68.5 L 153.5 77 L 148.5 79 L 131 79 L 131 47 Z " /><path fill="rgb(255,255,255)" stroke="rgb(255,255,255)" stroke-width="1" opacity="0.5058823529411764" d="M 192 47 L 201.5 47 L 202 49.5 L 201 49.5 L 200.5 48 L 193 48 L 192.5 52 L 192 47 Z " /><path fill="rgb(255,255,255)" stroke="rgb(255,255,255)" stroke-width="1" opacity="0.5058823529411764" d="M 209 47 L 219.5 47 L 220 49.5 L 219 49.5 L 218.5 48 L 210 48 L 209.5 50 L 209 47 Z " /><path fill="rgb(255,255,255)" stroke="rgb(255,255,255)" stroke-width="1" opacity="0.5058823529411764" d="M 227 47 L 237 47 L 237 51.5 L 235.5 56 L 235 52.5 L 236 48 L 228.5 48 L 228 49.5 L 227 49.5 L 227 47 Z " /><path fill="rgb(255,255,255)" stroke="rgb(255,255,255)" stroke-width="1" opacity="0.5058823529411764" d="M 149.5 48 Q 155.3 49.3 158 53.5 L 160 60.5 L 159 60.5 L 159 57.5 L 154.5 51 L 149.5 49 L 149.5 48 Z " /><path fill="rgb(255,255,255)" stroke="rgb(255,255,255)" stroke-width="1" opacity="0.5058823529411764" d="M 208.5 51 L 209 54.5 L 208 54.5 L 208.5 51 Z " /><path fill="rgb(255,255,255)" stroke="rgb(255,255,255)" stroke-width="1" opacity="0.5058823529411764" d="M 220.5 51 L 221 53.5 L 220 53.5 L 220.5 51 Z " /><path fill="rgb(255,255,255)" stroke="rgb(255,255,255)" stroke-width="1" opacity="0.5058823529411764" d="M 202.5 52 L 203 55.5 L 202 55.5 L 202.5 52 Z " /><path fill="rgb(255,255,255)" stroke="rgb(255,255,255)" stroke-width="1" opacity="0.5058823529411764" d="M 226.5 52 L 227 55.5 L 226 55.5 L 226.5 52 Z " /><path fill="rgb(255,255,255)" stroke="rgb(255,255,255)" stroke-width="1" opacity="0.5058823529411764" d="M 193.5 53 L 194 55.5 L 193 55.5 L 193.5 53 Z " /><path fill="rgb(255,255,255)" stroke="rgb(255,255,255)" stroke-width="1" opacity="0.5058823529411764" d="M 249.5 53 L 255 53.5 L 249.5 54 L 249.5 53 Z " /><path fill="rgb(255,255,255)" stroke="rgb(255,255,255)" stroke-width="1" opacity="0.5058823529411764" d="M 282.5 53 L 285 53.5 L 285 62.5 L 284 62.5 L 284 54.5 L 282.5 54 L 276.5 58 L 276 54.5 L 277 54.5 L 277.5 56 L 282.5 53 Z " /><path fill="rgb(255,255,255)" stroke="rgb(255,255,255)" stroke-width="1" opacity="0.5058823529411764" d="M 163.5 54 L 164 72.5 L 166 76.5 L 165 76.5 L 163 72.5 L 163.5 54 Z " /><path fill="rgb(255,255,255)" stroke="rgb(255,255,255)" stroke-width="1" opacity="0.5058823529411764" d="M 188.5 54 L 189 79 L 180 78.5 L 188 78 L 188.5 54 Z " /><path fill="rgb(255,255,255)" stroke="rgb(255,255,255)" stroke-width="1" opacity="0.5058823529411764" d="M 245.5 54 L 248 54.5 L 242 57 L 240.5 60 L 241 58.5 L 242.5 56 L 245.5 54 Z " /><path fill="rgb(255,255,255)" stroke="rgb(255,255,255)" stroke-width="1" opacity="0.5058823529411764" d="M 256.5 54 L 264 59.5 Q 266.5 63 265 70.5 L 264 70.5 Q 266 59 259.5 56 Q 255.7 55.8 256.5 54 Z " /><path fill="rgb(255,255,255)" stroke="rgb(255,255,255)" stroke-width="1" opacity="0.5058823529411764" d="M 140.5 55 Q 149.5 53.5 151 59.5 L 150.5 61 L 146.5 56 L 140.5 56 L 140.5 55 Z " /><path fill="rgb(255,255,255)" stroke="rgb(255,255,255)" stroke-width="1" opacity="0.5058823529411764" d="M 221.5 55 L 222 58.5 L 221 58.5 L 221.5 55 Z " /><path fill="rgb(255,255,255)" stroke="rgb(255,255,255)" stroke-width="1" opacity="0.5058823529411764" d="M 207.5 56 L 208 58.5 L 207 58.5 L 207.5 56 Z " /><path fill="rgb(255,255,255)" stroke="rgb(255,255,255)" stroke-width="1" opacity="0.5058823529411764" d="M 194.5 57 L 195 59.5 L 194 59.5 L 194.5 57 Z " /><path fill="rgb(255,255,255)" stroke="rgb(255,255,255)" stroke-width="1" opacity="0.5058823529411764" d="M 203.5 57 L 204 61.5 L 203 61.5 L 203.5 57 Z " /><path fill="rgb(255,255,255)" stroke="rgb(255,255,255)" stroke-width="1" opacity="0.5058823529411764" d="M 225.5 57 L 226 61.5 L 225 61.5 L 225.5 57 Z " /><path fill="rgb(255,255,255)" stroke="rgb(255,255,255)" stroke-width="1" opacity="0.5058823529411764" d="M 234.5 57 L 235 59.5 L 234 59.5 L 234.5 57 Z " /><path fill="rgb(255,255,255)" stroke="rgb(255,255,255)" stroke-width="1" opacity="0.5058823529411764" d="M 206.5 60 L 207 62.5 L 206 62.5 L 206.5 60 Z " /><path fill="rgb(255,255,255)" stroke="rgb(255,255,255)" stroke-width="1" opacity="0.5058823529411764" d="M 222.5 60 L 223 62.5 L 222 62.5 L 222.5 60 Z " /><path fill="rgb(255,255,255)" stroke="rgb(255,255,255)" stroke-width="1" opacity="0.5058823529411764" d="M 195.5 61 L 196 63.5 L 195 63.5 L 195.5 61 Z " /><path fill="rgb(255,255,255)" stroke="rgb(255,255,255)" stroke-width="1" opacity="0.5058823529411764" d="M 233.5 61 L 234 63.5 L 233 63.5 L 233.5 61 Z " /><path fill="rgb(255,255,255)" stroke="rgb(255,255,255)" stroke-width="1" opacity="0.5058823529411764" d="M 250.5 61 Q 255.3 60.3 256 63.5 L 255.5 65 L 253.5 62 Q 249.3 61.3 248.5 64 L 250.5 61 Z " /><path fill="rgb(255,255,255)" stroke="rgb(255,255,255)" stroke-width="1" opacity="0.5058823529411764" d="M 204.5 63 Q 207 64.2 206 68 Q 201.9 69.2 204.5 63 Z " /><path fill="rgb(255,255,255)" stroke="rgb(255,255,255)" stroke-width="1" opacity="0.5058823529411764" d="M 213.5 63 L 214 65.5 L 213 65.5 L 213.5 63 Z " /><path fill="rgb(255,255,255)" stroke="rgb(255,255,255)" stroke-width="1" opacity="0.5058823529411764" d="M 215.5 63 L 216 65.5 L 215 65.5 L 215.5 63 Z " /><path fill="rgb(255,255,255)" stroke="rgb(255,255,255)" stroke-width="1" opacity="0.5058823529411764" d="M 224.5 63 L 225 68 Q 221.7 69.3 223 64.5 L 224.5 63 Z " /><path fill="rgb(255,255,255)" stroke="rgb(255,255,255)" stroke-width="1" opacity="0.5058823529411764" d="M 278.5 63 L 281 63.5 L 277.5 65 L 278.5 63 Z " /><path fill="rgb(255,255,255)" stroke="rgb(255,255,255)" stroke-width="1" opacity="0.5058823529411764" d="M 196.5 65 L 197 67.5 L 196 67.5 L 196.5 65 Z " /><path fill="rgb(255,255,255)" stroke="rgb(255,255,255)" stroke-width="1" opacity="0.5058823529411764" d="M 232.5 65 L 233 67.5 L 232 67.5 L 232.5 65 Z " /><path fill="rgb(255,255,255)" stroke="rgb(255,255,255)" stroke-width="1" opacity="0.5058823529411764" d="M 238.5 65 L 239 67.5 L 238 67.5 L 238.5 65 Z " /><path fill="rgb(255,255,255)" stroke="rgb(255,255,255)" stroke-width="1" opacity="0.5058823529411764" d="M 276.5 66 L 277 79 L 268 78.5 L 276 78 L 276.5 66 Z " /><path fill="rgb(255,255,255)" stroke="rgb(255,255,255)" stroke-width="1" opacity="0.5058823529411764" d="M 212.5 67 L 213 69.5 L 212 69.5 L 212.5 67 Z " /><path fill="rgb(255,255,255)" stroke="rgb(255,255,255)" stroke-width="1" opacity="0.5058823529411764" d="M 216.5 67 L 217 70.5 L 216 70.5 L 216.5 67 Z " /><path fill="rgb(255,255,255)" stroke="rgb(255,255,255)" stroke-width="1" opacity="0.5058823529411764" d="M 255.5 67 L 256 69.5 L 254 70.5 L 255.5 67 Z " /><path fill="rgb(255,255,255)" stroke="rgb(255,255,255)" stroke-width="1" opacity="0.5058823529411764" d="M 149.5 68 L 148.5 70 L 144.5 71 L 144.5 70 L 149.5 68 Z " /><path fill="rgb(255,255,255)" stroke="rgb(255,255,255)" stroke-width="1" opacity="0.5058823529411764" d="M 179.5 68 L 180 69.5 Q 179.3 72.8 174.5 72 L 172.5 69 Q 173.3 71.8 177.5 71 L 179.5 68 Z " /><path fill="rgb(255,255,255)" stroke="rgb(255,255,255)" stroke-width="1" opacity="0.5058823529411764" d="M 248.5 68 L 250.5 71 L 253 71.5 L 250.5 72 Q 246.9 70.9 248.5 68 Z " /><path fill="rgb(255,255,255)" stroke="rgb(255,255,255)" stroke-width="1" opacity="0.5058823529411764" d="M 197.5 69 L 198 71.5 L 197 71.5 L 197.5 69 Z " /><path fill="rgb(255,255,255)" stroke="rgb(255,255,255)" stroke-width="1" opacity="0.5058823529411764" d="M 231.5 69 L 232 71.5 L 231 71.5 L 231.5 69 Z " /><path fill="rgb(255,255,255)" stroke="rgb(255,255,255)" stroke-width="1" opacity="0.5058823529411764" d="M 239.5 69 Q 240.4 74.6 244.5 77 L 249 78.5 L 246.5 79 L 240 73.5 L 239.5 69 Z " /><path fill="rgb(255,255,255)" stroke="rgb(255,255,255)" stroke-width="1" opacity="0.5058823529411764" d="M 211.5 71 L 212 74.5 L 211 74.5 L 211.5 71 Z " /><path fill="rgb(255,255,255)" stroke="rgb(255,255,255)" stroke-width="1" opacity="0.5058823529411764" d="M 217.5 72 L 218 74.5 L 217 74.5 L 217.5 72 Z " /><path fill="rgb(255,255,255)" stroke="rgb(255,255,255)" stroke-width="1" opacity="0.5058823529411764" d="M 198.5 73 L 200.5 78 L 209.5 78 L 210 76.5 L 211 76.5 L 210.5 79 L 199 79 L 198.5 73 Z " /><path fill="rgb(255,255,255)" stroke="rgb(255,255,255)" stroke-width="1" opacity="0.5058823529411764" d="M 230.5 73 L 231 75.5 L 230 75.5 L 230.5 73 Z " /><path fill="rgb(255,255,255)" stroke="rgb(255,255,255)" stroke-width="1" opacity="0.5058823529411764" d="M 262.5 74 L 260.5 77 L 258.5 78 L 259.5 76 L 262.5 74 Z " /><path fill="rgb(255,255,255)" stroke="rgb(255,255,255)" stroke-width="1" opacity="0.5058823529411764" d="M 179.5 76 L 178.5 78 L 174.5 79 L 174.5 78 L 179.5 76 Z " /><path fill="rgb(255,255,255)" stroke="rgb(255,255,255)" stroke-width="1" opacity="0.5058823529411764" d="M 218.5 76 L 219 78 L 228.5 78 L 229.5 77 L 230 79 L 218.5 79 L 218.5 76 Z " /><path fill="rgb(255,255,255)" stroke="rgb(255,255,255)" stroke-width="1" opacity="0.5058823529411764" d="M 167.5 77 L 171 78.5 L 168.5 79 L 167.5 77 Z " /><path fill="rgb(255,255,255)" stroke="rgb(255,255,255)" stroke-width="1" opacity="0.5058823529411764" d="M 254.5 78 L 257 78.5 L 254.5 79 L 254.5 78 Z " /><path fill="rgb(251,195,45)" stroke="rgb(251,195,45)" stroke-width="1" opacity="0.996078431372549" d="M 59.5 31 L 63.5 31 L 69 36.5 L 73 45.5 L 75 55.5 L 75 75.5 L 72 88.5 L 63.5 99 L 61 98.5 L 63 98 L 63 32.5 L 59.5 32 L 59.5 31 Z " /><path fill="rgb(251,195,45)" stroke="rgb(251,195,45)" stroke-width="1" opacity="0.996078431372549" d="M 54.5 35 Q 59 34 60 36.5 L 60 51.5 L 58.5 53 L 42.5 53 L 41 51.5 Q 42.9 42.4 49.5 38 L 54.5 35 Z " /><path fill="rgb(251,195,45)" stroke="rgb(251,195,45)" stroke-width="1" opacity="0.996078431372549" d="M 47.5 36 L 46.5 38 L 47.5 36 Z " /><path fill="rgb(251,195,45)" stroke="rgb(251,195,45)" stroke-width="1" opacity="0.996078431372549" d="M 41.5 42 L 40.5 44 L 41.5 42 Z " /><path fill="rgb(251,195,45)" stroke="rgb(251,195,45)" stroke-width="1" opacity="0.996078431372549" d="M 41.5 54 L 56.5 54 L 60 55 L 61 57.5 L 61 72.5 L 58.5 75 L 40.5 75 L 38 71.5 L 38 58.5 L 39 55 L 41.5 54 Z " /><path fill="rgb(251,195,45)" stroke="rgb(251,195,45)" stroke-width="1" opacity="0.996078431372549" d="M 34.5 58 L 35 60.5 L 34 60.5 L 34.5 58 Z " /><path fill="rgb(251,195,45)" stroke="rgb(251,195,45)" stroke-width="1" opacity="0.996078431372549" d="M 34.5 69 L 35 71.5 L 34 71.5 L 34.5 69 Z " /><path fill="rgb(251,195,45)" stroke="rgb(251,195,45)" stroke-width="1" opacity="0.996078431372549" d="M 42.5 76 L 58.5 76 L 60 77.5 L 60 93.5 L 58.5 95 Q 47.9 93.6 44 85.5 Q 40.4 83.6 41 77.5 L 42.5 76 Z " /><path fill="rgb(251,195,45)" stroke="rgb(251,195,45)" stroke-width="1" opacity="0.996078431372549" d="M 42.5 88 L 46.5 93 L 42.5 88 Z " /><path fill="rgb(254,254,242)" stroke="rgb(254,254,242)" stroke-width="1" opacity="0.996078431372549" d="M 56.5 32 Q 62.8 31.3 63 32.5 L 63 98 Q 46.8 97 40 85.5 L 35 74.5 L 34 61.5 L 37 49.5 L 45.5 38 L 56.5 32 Z M 55 35 L 50 38 Q 43 42 41 52 L 43 53 L 59 53 L 60 52 L 60 37 Q 59 34 55 35 Z M 42 54 L 39 55 L 38 59 L 38 72 L 41 75 L 59 75 L 61 73 L 61 58 L 60 55 L 57 54 L 42 54 Z M 43 76 L 41 78 Q 40 84 44 86 Q 48 94 59 95 L 60 94 L 60 78 L 59 76 L 43 76 Z " /><path fill="rgb(254,254,242)" stroke="rgb(254,254,242)" stroke-width="1" opacity="0.996078431372549" d="M 132 48 L 148.5 48 L 157 53.5 Q 160 57.5 160 64.5 Q 158.8 72.3 153.5 76 L 148.5 78 L 132 78 L 132 48 Z M 140 55 L 140 71 L 149 70 Q 152 67 151 60 Q 149 53 140 55 Z " /><path fill="rgb(254,254,242)" stroke="rgb(254,254,242)" stroke-width="1" opacity="0.996078431372549" d="M 193 48 L 200.5 48 L 201 49.5 L 204 68 Q 207.7 69.3 206 63.5 L 210 48 L 218.5 48 L 219 49.5 L 221 54.5 L 223 68 Q 227 69.4 225 62.5 L 228 48 L 236 48 L 236 51.5 L 230 76.5 L 228.5 78 L 219.5 78 L 219 76.5 L 214.5 60 L 210 78 L 200.5 78 L 199 76.5 L 193 48 Z " /><path fill="rgb(254,254,242)" stroke="rgb(254,254,242)" stroke-width="1" opacity="0.996078431372549" d="M 164 54 L 172 54 L 172 69.5 Q 172.8 72.8 177.5 72 L 180 69.5 L 180 54 L 188 54 L 188 78 L 180.5 78 L 180 76.5 L 178.5 77 L 171.5 79 L 166 77 L 164 72.5 L 164 54 Z " /><path fill="rgb(254,254,242)" stroke="rgb(254,254,242)" stroke-width="1" opacity="0.996078431372549" d="M 248.5 54 L 255.5 54 L 263 59.5 Q 265.7 63.3 264 71.5 L 260.5 76 Q 257 79.5 249.5 79 Q 243.8 77.8 241 73.5 Q 238.3 70.2 239 63.5 L 242 57 L 248.5 54 Z M 251 61 L 247 66 Q 247 70 251 72 L 255 71 Q 258 69 256 64 Q 255 60 251 61 Z " /><path fill="rgb(254,254,242)" stroke="rgb(254,254,242)" stroke-width="1" opacity="0.996078431372549" d="M 268 54 L 276 54 L 276 57.5 L 278.5 56 L 284 54 L 284 63 L 278.5 63 L 276 66.5 L 276 78 L 268 78 L 268 54 Z " /><path fill="rgb(100,150,61)" stroke="rgb(100,150,61)" stroke-width="1" opacity="0.9137254901960784" d="M 61.5 17 Q 65.3 16.3 66 18.5 Q 64.5 26.5 69.5 28 Q 70.6 25.3 74 26 L 75.5 30 L 80 29 L 80.5 33 L 85 32 L 85 36 L 89 36 L 89 41 L 91.5 41 L 93 43.5 L 92 46 L 96 47 L 95 52 L 98 53.5 L 96 58 L 99 59.5 L 97 64 L 100 65.5 L 97 69.5 L 99 73 L 96 74.5 L 98 79 L 94 80.5 L 96 83.5 L 92 85 L 93 90 L 89 90 L 89 95 L 85 95 L 85 99 L 80 99 Q 82.1 104.2 77.5 103 L 75.5 102 L 72.5 106 L 68 104 L 66.5 107 L 62.5 105 L 59.5 107 L 56.5 104 L 55.5 105 L 53.5 106 L 50.5 102 L 46 103 L 46 99 L 41 99 Q 43.3 93 36.5 95 L 37 93.5 L 37 90 Q 31.8 92.1 33 87.5 L 34 85 Q 28.8 87.1 30 82.5 L 31.5 80 L 28 79 Q 27.3 75.6 30 74.5 L 27 73 Q 26.3 69.6 29 68.5 L 26 67 L 29 62.5 Q 26.3 61.4 27 58 L 30 57.5 L 28 53.5 L 32 51.5 Q 29.3 50.4 30 47 L 34 45.5 L 33 41 Q 38.2 43.1 37 38.5 Q 34.8 37.3 37.5 36 L 41 36 Q 38.8 30.4 44.5 32 L 46 32.5 Q 44.3 27.3 49.5 29 Q 50.8 31.3 52 28.5 Q 50.8 24.8 54.5 26 L 56.5 28 L 60 24.5 Q 58.5 18.5 61.5 17 Z M 60 31 L 48 36 Q 37 43 34 59 Q 32 79 42 89 Q 49 98 64 99 L 72 89 L 75 76 L 75 56 L 73 46 L 69 37 L 64 31 L 60 31 Z " /></svg>