<svg width="1809" height="1021" viewBox="0 0 1809 1021" fill="none" xmlns="http://www.w3.org/2000/svg">
<mask id="mask0_549_248" style="mask-type:luminance" maskUnits="userSpaceOnUse" x="2" y="622" width="500" height="338">
<path d="M2.74121 622.071H501.587V959.323H2.74121V622.071Z" fill="white"/>
</mask>
<g mask="url(#mask0_549_248)">
<path d="M52.4955 635.193C86.4035 616.672 125.108 621.549 159.348 638.832C172.988 645.706 186.115 654.46 199.734 661.409C213.363 668.373 227.71 673.547 242.207 672.846C256.939 672.131 271.158 665.405 284.82 657.711C298.492 650.016 311.918 641.248 326.19 636.118C343 630.063 360.965 629.258 377.679 635.82C394.392 642.381 409.745 656.592 419.392 676.694C428.482 695.647 432.293 718.925 442.111 737.147C452.861 757.07 469.585 768.806 482.583 785.94C489.082 794.5 494.735 804.67 497.54 816.51C498.942 822.43 499.606 828.708 499.274 834.911C498.953 841.13 497.615 847.274 495.238 852.538C492.625 858.309 488.825 862.931 484.563 866.272C480.302 869.612 475.58 871.729 470.784 873.072C461.191 875.756 451.308 875.413 441.587 876.934C413.632 881.333 388.289 900.823 362.143 915.318C330.484 932.854 295.483 943.323 262.271 932.69C250.355 928.888 238.963 922.46 227.389 916.958C215.815 911.455 203.824 906.848 191.597 906.862C171.522 906.907 152.656 919.344 134.691 931.81C124.787 938.67 114.883 945.634 104.466 950.823C94.0588 955.998 83.0523 959.383 71.9923 958.816C60.943 958.25 49.8188 953.522 41.2106 943.859C36.8958 939.028 33.2663 933.003 30.7502 926.144C28.2234 919.299 26.8316 911.604 26.8958 903.91C26.96 896.32 28.4054 888.863 30.4397 881.825C32.4633 874.801 35.0757 868.121 37.5703 861.38C40.0757 854.64 42.474 847.795 44.0586 840.533C45.6432 833.286 46.3819 825.561 45.4933 818.076C44.6903 811.261 42.5597 804.834 39.7759 799.107C37.0029 793.396 33.5768 788.326 30.0114 783.524C22.8701 773.921 14.9578 765.078 9.78652 753.282C5.08629 742.546 2.93425 729.781 3.29828 717.225C3.6516 704.654 6.46745 692.322 11.0071 681.451C20.0756 659.709 35.686 644.379 52.4955 635.193Z" fill="#FCC52D"/>
</g>
<mask id="mask1_549_248" style="mask-type:luminance" maskUnits="userSpaceOnUse" x="279" y="622" width="500" height="338">
<path d="M279.572 622.071H778.418V959.323H279.572V622.071Z" fill="white"/>
</mask>
<g mask="url(#mask1_549_248)">
<path d="M329.883 635.193C363.78 616.672 402.485 621.549 436.725 638.832C450.365 645.706 463.492 654.46 477.121 661.409C490.74 668.373 505.087 673.547 519.584 672.846C534.316 672.131 548.546 665.405 562.207 657.711C575.869 650.016 589.295 641.248 603.567 636.118C620.377 630.063 638.342 629.258 655.056 635.82C671.769 642.381 687.133 656.592 696.779 676.694C705.869 695.647 709.67 718.925 719.499 737.147C730.238 757.07 746.962 768.806 759.96 785.94C766.459 794.5 772.112 804.67 774.917 816.51C776.319 822.43 776.983 828.708 776.651 834.911C776.33 841.13 774.992 847.274 772.615 852.538C770.002 858.309 766.202 862.931 761.94 866.272C757.679 869.612 752.968 871.729 748.172 873.072C738.578 875.756 728.685 875.413 718.964 876.934C691.009 881.333 665.666 900.823 639.52 915.318C607.861 932.854 572.86 943.323 539.648 932.69C527.732 928.888 516.34 922.46 504.766 916.958C493.192 911.455 481.211 906.848 468.974 906.862C448.899 906.907 430.033 919.344 412.068 931.81C402.164 938.67 392.26 945.634 381.853 950.823C371.436 955.998 360.429 959.383 349.38 958.816C338.32 958.25 327.196 953.522 318.588 943.859C314.283 939.028 310.643 933.003 308.127 926.144C305.6 919.299 304.209 911.604 304.273 903.91C304.337 896.32 305.782 888.863 307.817 881.825C309.84 874.801 312.453 868.121 314.947 861.38C317.453 854.64 319.851 847.795 321.436 840.533C323.02 833.286 323.759 825.561 322.881 818.076C322.067 811.261 319.937 804.834 317.164 799.107C314.38 793.396 310.964 788.326 307.388 783.524C300.258 773.921 292.335 765.078 287.163 753.282C282.463 742.546 280.311 729.781 280.675 717.225C281.029 704.654 283.844 692.322 288.384 681.451C297.463 659.709 313.074 644.379 329.883 635.193Z" fill="#FCC52D"/>
</g>
<mask id="mask2_549_248" style="mask-type:luminance" maskUnits="userSpaceOnUse" x="556" y="622" width="500" height="338">
<path d="M556.447 622.071H1055.25V959.323H556.447V622.071Z" fill="white"/>
</mask>
<g mask="url(#mask2_549_248)">
<path d="M607.261 635.193C641.158 616.672 679.863 621.549 714.103 638.832C727.754 645.706 740.87 654.46 754.499 661.409C768.118 668.373 782.465 673.547 796.962 672.846C811.694 672.131 825.923 665.405 839.585 657.711C853.247 650.016 866.684 641.248 880.945 636.118C897.765 630.063 915.72 629.258 932.434 635.82C949.147 642.381 964.511 656.592 974.157 676.694C983.247 695.647 987.059 718.925 996.877 737.147C1007.62 757.07 1024.34 768.806 1037.34 785.94C1043.84 794.5 1049.49 804.67 1052.29 816.51C1053.7 822.43 1054.36 828.708 1054.04 834.911C1053.71 841.13 1052.37 847.274 1049.99 852.538C1047.39 858.309 1043.59 862.931 1039.33 866.272C1035.07 869.612 1030.35 871.729 1025.55 873.072C1015.96 875.756 1006.07 875.413 996.352 876.934C968.387 881.333 943.044 900.823 916.909 915.318C885.238 932.854 850.238 943.323 817.026 932.69C805.11 928.888 793.718 922.46 782.144 916.958C770.57 911.455 758.589 906.848 746.362 906.862C726.287 906.907 707.422 919.344 689.445 931.81C679.542 938.67 669.638 945.634 659.231 950.823C648.814 955.998 637.807 959.383 626.758 958.816C615.709 958.25 604.574 953.522 595.965 943.859C591.661 939.028 588.021 933.003 585.505 926.144C582.989 919.299 581.597 911.604 581.661 903.91C581.715 896.32 583.16 888.863 585.195 881.825C587.229 874.801 589.831 868.121 592.336 861.38C594.831 854.64 597.24 847.795 598.813 840.533C600.398 833.286 601.137 825.561 600.259 818.076C599.456 811.261 597.315 804.834 594.541 799.107C591.758 793.396 588.342 788.326 584.777 783.524C577.636 773.921 569.713 765.078 564.541 753.282C559.841 742.546 557.7 729.781 558.053 717.225C558.417 704.654 561.233 692.322 565.762 681.451C574.841 659.709 590.452 644.379 607.261 635.193Z" fill="#FCC52D"/>
</g>
<mask id="mask3_549_248" style="mask-type:luminance" maskUnits="userSpaceOnUse" x="833" y="622" width="500" height="338">
<path d="M833.824 622.071H1332.08V959.323H833.824V622.071Z" fill="white"/>
</mask>
<g mask="url(#mask3_549_248)">
<path d="M884.638 635.193C918.535 616.672 957.251 621.549 991.491 638.832C1005.13 645.706 1018.26 654.46 1031.88 661.409C1045.51 668.373 1059.84 673.547 1074.35 672.846C1089.07 672.131 1103.3 665.405 1116.96 657.711C1130.62 650.016 1144.06 641.248 1158.33 636.118C1175.14 630.063 1193.11 629.258 1209.82 635.82C1226.52 642.381 1241.89 656.592 1251.53 676.694C1260.62 695.647 1264.44 718.925 1274.25 737.147C1284.99 757.07 1301.73 768.806 1314.71 785.94C1321.21 794.5 1326.88 804.67 1329.67 816.51C1331.07 822.43 1331.74 828.708 1331.42 834.911C1331.08 841.13 1329.76 847.274 1327.37 852.538C1324.77 858.309 1320.97 862.931 1316.71 866.272C1312.44 869.612 1307.72 871.729 1302.93 873.072C1293.33 875.756 1283.45 875.413 1273.73 876.934C1245.77 881.333 1220.42 900.823 1194.29 915.318C1162.63 932.854 1127.62 943.323 1094.41 932.69C1082.49 928.888 1071.11 922.46 1059.53 916.958C1047.96 911.455 1035.97 906.848 1023.74 906.862C1003.66 906.907 984.799 919.344 966.822 931.81C956.919 938.67 947.026 945.634 936.608 950.823C926.191 955.998 915.184 959.383 904.135 958.816C893.086 958.25 881.961 953.522 873.342 943.859C869.038 939.028 865.409 933.003 862.882 926.144C860.366 919.299 858.974 911.604 859.038 903.91C859.092 896.32 860.548 888.863 862.572 881.825C864.606 874.801 867.218 868.121 869.713 861.38C872.208 854.64 874.617 847.795 876.201 840.533C877.775 833.286 878.524 825.561 877.636 818.076C876.833 811.261 874.702 804.834 871.918 799.107C869.135 793.396 865.719 788.326 862.154 783.524C855.013 773.921 847.1 765.078 841.929 753.282C837.218 742.546 835.077 729.781 835.43 717.225C835.794 704.654 838.61 692.322 843.15 681.451C852.218 659.709 867.828 644.379 884.638 635.193Z" fill="#FCC52D"/>
</g>
<mask id="mask4_549_248" style="mask-type:luminance" maskUnits="userSpaceOnUse" x="1111" y="622" width="498" height="338">
<path d="M1111.2 622.071H1608.91V959.323H1111.2V622.071Z" fill="white"/>
</mask>
<g mask="url(#mask4_549_248)">
<path d="M1162.02 635.193C1195.93 616.672 1234.63 621.549 1268.87 638.832C1282.51 645.706 1295.64 654.46 1309.26 661.409C1322.89 668.373 1337.23 673.547 1351.73 672.846C1366.46 672.131 1380.68 665.405 1394.35 657.711C1408.01 650.016 1421.44 641.248 1435.71 636.118C1452.52 630.063 1470.49 629.258 1487.2 635.82C1503.91 642.381 1519.27 656.592 1528.91 676.694C1538 695.647 1541.82 718.925 1551.63 737.147C1562.38 757.07 1579.11 768.806 1592.11 785.94C1598.6 794.5 1604.26 804.67 1607.06 816.51C1608.46 822.43 1609.13 828.708 1608.8 834.911C1608.48 841.13 1607.14 847.274 1604.76 852.538C1602.15 858.309 1598.35 862.931 1594.09 866.272C1589.82 869.612 1585.1 871.729 1580.31 873.072C1570.71 875.756 1560.83 875.413 1551.11 876.934C1523.15 881.333 1497.81 900.823 1471.67 915.318C1440.01 932.854 1405.01 943.323 1371.79 932.69C1359.88 928.888 1348.49 922.46 1336.91 916.958C1325.34 911.455 1313.35 906.848 1301.12 906.862C1281.04 906.907 1262.18 919.344 1244.21 931.81C1234.31 938.67 1224.41 945.634 1213.99 950.823C1203.58 955.998 1192.57 959.383 1181.51 958.816C1170.47 958.25 1159.34 953.522 1150.73 943.859C1146.43 939.028 1142.79 933.003 1140.27 926.144C1137.75 919.299 1136.35 911.604 1136.42 903.91C1136.48 896.32 1137.93 888.863 1139.96 881.825C1141.99 874.801 1144.6 868.121 1147.09 861.38C1149.6 854.64 1152 847.795 1153.58 840.533C1155.17 833.286 1155.9 825.561 1155.02 818.076C1154.21 811.261 1152.08 804.834 1149.3 799.107C1146.53 793.396 1143.1 788.326 1139.53 783.524C1132.39 773.921 1124.48 765.078 1119.31 753.282C1114.61 742.546 1112.46 729.781 1112.82 717.225C1113.17 704.654 1115.99 692.322 1120.53 681.451C1129.6 659.709 1145.21 644.379 1162.02 635.193Z" fill="#FCC52D"/>
</g>
<mask id="mask5_549_248" style="mask-type:luminance" maskUnits="userSpaceOnUse" x="1323" y="343" width="360" height="627">
<path d="M1323.86 343.393H1682.92V969.464H1323.86V343.393Z" fill="white"/>
</mask>
<g mask="url(#mask5_549_248)">
<mask id="mask6_549_248" style="mask-type:luminance" maskUnits="userSpaceOnUse" x="1288" y="242" width="460" height="777">
<path d="M1288.34 851.255L1532.35 242.363L1747.35 409.513L1503.34 1018.39L1288.34 851.255Z" fill="white"/>
</mask>
<g mask="url(#mask6_549_248)">
<mask id="mask7_549_248" style="mask-type:luminance" maskUnits="userSpaceOnUse" x="1288" y="242" width="460" height="777">
<path d="M1288.34 851.255L1532.35 242.363L1747.35 409.513L1503.34 1018.39L1288.34 851.255Z" fill="white"/>
</mask>
<g mask="url(#mask7_549_248)">
<path d="M1324.91 798.615C1329.81 748.362 1351.74 703.67 1379.26 670.446C1390.22 657.204 1402.11 645.513 1413.1 632.33C1424.1 619.148 1434.33 604.221 1440.96 586.252C1447.69 567.984 1450.41 547.406 1452.24 527.036C1454.09 506.681 1455.14 486.072 1458.87 466.209C1463.27 442.812 1471.52 420.578 1483.78 403.444C1496.04 386.325 1512.44 374.574 1529.74 372.636C1546.05 370.816 1562.5 377.527 1578.71 374.47C1596.44 371.114 1611.95 356.486 1629.02 349.03C1637.56 345.302 1646.69 343.393 1655.48 345.749C1659.87 346.927 1664.13 349.179 1667.87 352.594C1671.6 356.023 1674.8 360.646 1676.95 366.104C1679.29 372.084 1680.34 378.958 1680.35 385.773C1680.37 392.588 1679.4 399.358 1677.9 405.845C1674.91 418.818 1669.88 430.674 1666.1 443.244C1655.22 479.377 1655.09 519.714 1651.43 558.56C1647 605.608 1636.51 653.282 1613.66 688.489C1605.46 701.135 1595.87 711.857 1586.78 723.249C1577.71 734.642 1568.97 746.975 1563.02 761.857C1553.26 786.298 1551.87 815.302 1550.92 843.232C1550.39 858.607 1549.93 874.041 1548.11 889.236C1546.28 904.432 1543.04 919.463 1537.3 932.631C1531.56 945.798 1523.18 957.027 1512.92 962.783C1507.79 965.661 1502.23 967.152 1496.71 966.884C1491.19 966.601 1485.69 964.543 1480.89 960.725C1476.16 956.952 1472.2 951.554 1468.78 945.649C1465.35 939.759 1462.44 933.332 1459.43 927.009C1456.43 920.686 1453.3 914.423 1449.53 908.965C1445.75 903.507 1441.27 898.84 1436.15 896.26C1431.48 893.919 1426.42 893.382 1421.47 893.978C1416.53 894.575 1411.69 896.26 1406.93 898.258C1397.44 902.255 1388.04 907.578 1378.12 908.115C1369.1 908.607 1360.05 904.999 1352.35 898.437C1344.65 891.876 1338.28 882.436 1333.68 871.625C1324.48 850.003 1322.47 823.534 1324.91 798.615Z" fill="#FCC52D"/>
</g>
</g>
</g>
<mask id="mask8_549_248" style="mask-type:luminance" maskUnits="userSpaceOnUse" x="1118" y="381" width="437" height="570">
<path d="M1118.29 381.568H1554.1V950.376H1118.29V381.568Z" fill="white"/>
</mask>
<g mask="url(#mask8_549_248)">
<mask id="mask9_549_248" style="mask-type:luminance" maskUnits="userSpaceOnUse" x="1083" y="262" width="529" height="737">
<path d="M1083.53 755.758L1437.54 262.688L1611.64 505.175L1257.63 998.244L1083.53 755.758Z" fill="white"/>
</mask>
<g mask="url(#mask9_549_248)">
<mask id="mask10_549_248" style="mask-type:luminance" maskUnits="userSpaceOnUse" x="1083" y="262" width="529" height="737">
<path d="M1083.53 755.758L1437.54 262.688L1611.64 505.175L1257.63 998.244L1083.53 755.758Z" fill="white"/>
</mask>
<g mask="url(#mask10_549_248)">
<path d="M1129.01 719.014C1143.58 672.533 1173.43 637.848 1206.41 616.344C1219.54 607.785 1233.27 601.045 1246.44 592.545C1259.6 584.045 1272.37 573.577 1282.26 558.799C1292.32 543.782 1298.97 525.023 1304.72 506.129C1310.48 487.22 1315.52 467.805 1323 450.119C1331.83 429.287 1344.12 411.019 1359.27 399.194C1374.41 387.384 1392.49 382.299 1409.51 387.026C1425.56 391.47 1440.07 404.175 1456.27 407.381C1473.98 410.9 1491.77 402.728 1509.65 402.042C1518.59 401.684 1527.76 403.31 1535.74 408.917C1539.75 411.72 1543.4 415.508 1546.32 420.22C1549.25 424.947 1551.42 430.599 1552.42 436.668C1553.51 443.319 1553.16 450.328 1551.85 456.889C1550.53 463.45 1548.26 469.594 1545.55 475.261C1540.13 486.609 1532.97 496.093 1526.87 506.755C1509.33 537.4 1501.31 576.141 1490.18 612.124C1476.7 655.712 1457.25 697.586 1428.38 722.787C1418.01 731.824 1406.7 738.49 1395.72 746.005C1384.75 753.521 1373.92 762.051 1365.29 774.115C1351.12 793.918 1344.1 821.297 1337.71 847.796C1334.19 862.41 1330.73 877.083 1326 891.011C1321.27 904.924 1315.2 918.166 1307.1 928.649C1299 939.132 1288.73 946.753 1277.74 948.393C1272.23 949.213 1266.6 948.527 1261.34 946.171C1256.08 943.8 1251.19 939.744 1247.33 934.226C1243.52 928.813 1240.77 922.118 1238.62 915.139C1236.48 908.16 1234.94 900.868 1233.29 893.65C1231.63 886.418 1229.86 879.215 1227.3 872.52C1224.73 865.839 1221.33 859.651 1216.91 855.222C1212.87 851.196 1208.11 848.75 1203.24 847.438C1198.37 846.14 1193.38 845.917 1188.41 846.036C1178.5 846.275 1168.41 847.825 1158.76 844.575C1149.98 841.622 1141.99 834.703 1135.86 825.472C1129.74 816.227 1125.46 804.744 1123.15 792.591C1118.54 768.269 1121.79 742.054 1129.01 719.014Z" fill="#FCC52D"/>
</g>
</g>
</g>
<mask id="mask11_549_248" style="mask-type:luminance" maskUnits="userSpaceOnUse" x="1315" y="114" width="434" height="570">
<path d="M1315.64 114.343H1748.7V683.151H1315.64V114.343Z" fill="white"/>
</mask>
<g mask="url(#mask11_549_248)">
<mask id="mask12_549_248" style="mask-type:luminance" maskUnits="userSpaceOnUse" x="1278" y="-5" width="529" height="736">
<path d="M1278.66 488.354L1632.67 -4.71582L1806.77 237.785L1452.76 730.855L1278.66 488.354Z" fill="white"/>
</mask>
<g mask="url(#mask12_549_248)">
<mask id="mask13_549_248" style="mask-type:luminance" maskUnits="userSpaceOnUse" x="1278" y="-5" width="529" height="736">
<path d="M1278.66 488.354L1632.67 -4.71582L1806.77 237.785L1452.76 730.855L1278.66 488.354Z" fill="white"/>
</mask>
<g mask="url(#mask13_549_248)">
<path d="M1324.14 451.61C1338.71 405.129 1368.56 370.458 1401.54 348.955C1414.67 340.38 1428.4 333.655 1441.57 325.14C1454.73 316.64 1467.5 306.172 1477.39 291.394C1487.45 276.393 1494.1 257.618 1499.86 238.724C1505.61 219.831 1510.66 200.4 1518.13 182.715C1526.95 161.882 1539.25 143.63 1554.4 131.805C1569.55 119.979 1587.62 114.909 1604.65 119.621C1620.69 124.065 1635.21 136.785 1651.4 139.991C1669.12 143.496 1686.9 135.324 1704.78 134.638C1713.72 134.295 1722.89 135.92 1730.88 141.527C1734.88 144.331 1738.53 148.118 1741.46 152.831C1744.39 157.543 1746.55 163.209 1747.54 169.279C1748.64 175.915 1748.29 182.923 1746.98 189.5C1745.66 196.061 1743.4 202.19 1740.68 207.871C1735.26 219.204 1728.1 228.704 1722 239.366C1704.46 269.995 1696.44 308.752 1685.31 344.735C1671.83 388.323 1652.38 430.196 1623.51 455.383C1613.14 464.434 1601.83 471.1 1590.85 478.616C1579.88 486.117 1569.06 494.661 1560.42 506.725C1546.26 526.529 1539.22 553.907 1532.84 580.406C1529.32 595.005 1525.86 609.693 1521.13 623.606C1516.4 637.534 1510.33 650.761 1502.23 661.245C1494.13 671.728 1483.86 679.348 1472.86 681.003C1467.36 681.823 1461.74 681.137 1456.47 678.766C1451.22 676.41 1446.32 672.339 1442.46 666.837C1438.66 661.409 1435.89 654.713 1433.75 647.749C1431.62 640.77 1430.07 633.478 1428.42 626.246C1426.76 619.028 1424.98 611.811 1422.43 605.13C1419.86 598.435 1416.46 592.246 1412.04 587.832C1408 583.806 1403.24 581.36 1398.37 580.048C1393.5 578.736 1388.51 578.527 1383.55 578.646C1373.62 578.885 1363.54 580.436 1353.89 577.185C1345.11 574.232 1337.11 567.313 1330.99 558.083C1324.87 548.837 1320.59 537.34 1318.28 525.186C1313.67 500.88 1316.92 474.664 1324.14 451.61Z" fill="#FCC52D"/>
</g>
</g>
</g>
</svg>
